<svg width="72" height="40" viewBox="0 0 72 40" fill="none" xmlns="http://www.w3.org/2000/svg">
<rect width="72" height="40" rx="20" fill="#397BF7"/>
<path d="M33.3586 12.1029C32.1303 11.9657 30.8609 11.9657 29.6326 12.1029C28.8424 12.1912 28.2034 12.813 28.1102 13.6092C27.9633 14.8646 27.9633 16.1328 28.1102 17.3881C28.2034 18.1843 28.8424 18.8062 29.6326 18.8945C30.8609 19.0317 32.1303 19.0317 33.3586 18.8945C34.1489 18.8062 34.7879 18.1843 34.8811 17.3881C35.028 16.1328 35.028 14.8646 34.8811 13.6092C34.7879 12.813 34.1489 12.1912 33.3586 12.1029Z" fill="white"/>
<path d="M33.3586 21.1055C32.1303 20.9683 30.8609 20.9683 29.6326 21.1055C28.8424 21.1938 28.2034 21.8157 28.1102 22.6119C27.9633 23.8672 27.9633 25.1354 28.1102 26.3908C28.2034 27.187 28.8424 27.8088 29.6326 27.8971C30.8609 28.0343 32.1303 28.0343 33.3586 27.8971C34.1489 27.8088 34.7879 27.187 34.8811 26.3908C35.028 25.1354 35.028 23.8672 34.8811 22.6119C34.7879 21.8157 34.1489 21.1938 33.3586 21.1055Z" fill="white"/>
<path d="M42.3674 12.1029C41.1391 11.9657 39.8697 11.9657 38.6414 12.1029C37.8511 12.1912 37.2121 12.813 37.1189 13.6092C36.972 14.8646 36.972 16.1328 37.1189 17.3881C37.2121 18.1843 37.8511 18.8062 38.6414 18.8945C39.8697 19.0317 41.1391 19.0317 42.3674 18.8945C43.1576 18.8062 43.7966 18.1843 43.8898 17.3881C44.0367 16.1328 44.0367 14.8646 43.8898 13.6092C43.7966 12.813 43.1576 12.1912 42.3674 12.1029Z" fill="white"/>
<path d="M42.3674 21.1055C41.1391 20.9683 39.8697 20.9683 38.6414 21.1055C37.8511 21.1938 37.2121 21.8157 37.1189 22.6119C36.972 23.8672 36.972 25.1354 37.1189 26.3908C37.2121 27.187 37.8511 27.8088 38.6414 27.8971C39.8697 28.0343 41.1391 28.0343 42.3674 27.8971C43.1576 27.8088 43.7966 27.187 43.8898 26.3908C44.0367 25.1354 44.0367 23.8672 43.8898 22.6119C43.7966 21.8157 43.1576 21.1938 42.3674 21.1055Z" fill="white"/>
</svg>